<?xml version="1.0"?>
<svg xmlns="http://www.w3.org/2000/svg" xmlns:xlink="http://www.w3.org/1999/xlink" xmlns:svgjs="http://svgjs.com/svgjs" version="1.1" width="512" height="512" x="0" y="0" viewBox="0 0 24 24" style="enable-background:new 0 0 512 512" xml:space="preserve"><g><path xmlns="http://www.w3.org/2000/svg" d="m12.883 15.216-7.935 7.935a2.9 2.9 0 1 1 -4.1-4.1l7.935-7.935zm4.217-8.316a2.967 2.967 0 0 0 -4.1 0l-2.8 2.8 4.1 4.1 2.8-2.8a2.9 2.9 0 0 0 0-4.1zm-12.237-1.755 1.55.442.442 1.55a1.191 1.191 0 0 0 2.29 0l.442-1.55 1.55-.442a1.191 1.191 0 0 0 0-2.29l-1.55-.442-.442-1.55a1.191 1.191 0 0 0 -2.29 0l-.442 1.55-1.55.442a1.191 1.191 0 0 0 0 2.29zm12 12 1.55.442.442 1.55a1.191 1.191 0 0 0 2.29 0l.442-1.55 1.55-.442a1.191 1.191 0 0 0 0-2.29l-1.55-.442-.442-1.55a1.191 1.191 0 0 0 -2.29 0l-.442 1.55-1.55.442a1.191 1.191 0 0 0 0 2.29zm.893-12.645 1.355.387.389 1.357a1.042 1.042 0 0 0 2 0l.387-1.355 1.357-.389a1.042 1.042 0 0 0 0-2l-1.355-.387-.389-1.357a1.042 1.042 0 0 0 -2 0l-.387 1.355-1.357.389a1.042 1.042 0 0 0 0 2z" fill="#003e6f" data-original="#000000"/></g></svg>
